<?xml version="1.0" encoding="UTF-8" standalone="no"?>
<!-- Created with Inkscape (http://www.inkscape.org/) -->

<svg
   width="210mm"
   height="297mm"
   viewBox="0 0 210 297"
   version="1.1"
   id="svg1"
   xml:space="preserve"
   inkscape:version="1.3.2 (091e20ef0f, 2023-11-25)"
   sodipodi:docname="icon.svg"
   xmlns:inkscape="http://www.inkscape.org/namespaces/inkscape"
   xmlns:sodipodi="http://sodipodi.sourceforge.net/DTD/sodipodi-0.dtd"
   xmlns:xlink="http://www.w3.org/1999/xlink"
   xmlns="http://www.w3.org/2000/svg"
   xmlns:svg="http://www.w3.org/2000/svg"><sodipodi:namedview
     id="namedview1"
     pagecolor="#ffffff"
     bordercolor="#000000"
     borderopacity="0.25"
     inkscape:showpageshadow="2"
     inkscape:pageopacity="0.0"
     inkscape:pagecheckerboard="0"
     inkscape:deskcolor="#d1d1d1"
     inkscape:document-units="mm"
     showguides="true"
     inkscape:zoom="2.9354367"
     inkscape:cx="57.23169"
     inkscape:cy="86.869529"
     inkscape:window-width="1920"
     inkscape:window-height="1011"
     inkscape:window-x="0"
     inkscape:window-y="32"
     inkscape:window-maximized="1"
     inkscape:current-layer="layer1"><sodipodi:guide
       position="5.9582933,289.0845"
       orientation="0,-1"
       id="guide4"
       inkscape:locked="false" /><sodipodi:guide
       position="7.2743215,289.02567"
       orientation="1,0"
       id="guide5"
       inkscape:locked="false" /><sodipodi:guide
       position="8.499549,291.96622"
       orientation="0,-1"
       id="guide6"
       inkscape:locked="false" /><sodipodi:guide
       position="8.5614259,291.98267"
       orientation="1,0"
       id="guide7"
       inkscape:locked="false" /><sodipodi:guide
       position="7.7049435,291.77065"
       orientation="1,0"
       id="guide8"
       inkscape:locked="false" /><sodipodi:guide
       position="27.478761,280.13175"
       orientation="1,0"
       id="guide11"
       inkscape:locked="false" /></sodipodi:namedview><defs
     id="defs1"><linearGradient
       id="linearGradient14"
       inkscape:collect="always"><stop
         style="stop-color:#cccccc;stop-opacity:1;"
         offset="0"
         id="stop14" /><stop
         style="stop-color:#9d9d9d;stop-opacity:1;"
         offset="1"
         id="stop15" /></linearGradient><clipPath
       clipPathUnits="userSpaceOnUse"
       id="clipPath1"><rect
         style="fill:#ff0000;stroke-width:0.264583"
         id="rect2"
         width="7.5086055"
         height="7.0756812"
         x="42.452499"
         y="66.605453" /></clipPath><linearGradient
       inkscape:collect="always"
       xlink:href="#linearGradient14"
       id="linearGradient15"
       x1="40.080425"
       y1="12.527596"
       x2="40.080425"
       y2="20.676691"
       gradientUnits="userSpaceOnUse" /></defs><g
     inkscape:label="Ebene 1"
     inkscape:groupmode="layer"
     id="layer1"><image
       width="508"
       height="285.75"
       preserveAspectRatio="none"
       xlink:href="Screenshot%20(6).png"
       id="image1"
       x="-405.27979"
       y="-208.56467"
       style="fill:#ff0000"
       clip-path="url(#clipPath1)"
       transform="translate(-30.958821,-63.182658)" /><rect
       style="fill:#cccccc;stroke-width:0.264583"
       id="rect10"
       width="8.1718388"
       height="8.1718388"
       x="12.410882"
       y="12.771837" /><rect
       style="fill:url(#linearGradient15);stroke-width:0.264583"
       id="rect10-8"
       width="8.1718388"
       height="8.1718388"
       x="35.876217"
       y="12.518629" /><path
       id="rect3"
       style="fill:#000000;stroke-width:0.267041"
       d="m 17.628257,14.189833 a 0.56816649,0.56816649 0 0 0 -0.567924,0.567924 0.56816649,0.56816649 0 0 0 0.0015,0.01344 l 0.0062,-0.01912 h 0.846976 v 0.495577 a 0.56816649,0.56816649 0 0 0 0.28112,-0.489893 0.56816649,0.56816649 0 0 0 -0.567924,-0.567924 z m -1.487248,0.56379 -1.344104,4.322734 h 3.399793 l -0.738456,-2.36368 -0.38499,1.231966 H 16.071246 L 16.95698,15.10864 16.845876,14.753623 H 16.49706 Z" /><path
       id="rect3-0"
       style="fill:#ff0000;stroke-width:0.267041"
       d="m 5.8521218,15.204132 h 0.356157 0.348791 l 1.351209,4.323 H 4.5082787 Z"
       sodipodi:nodetypes="cccccc" /><circle
       style="fill:#ff00ff;stroke-width:0.264583"
       id="path3-9"
       cx="7.5519786"
       cy="15.398194"
       r="0.60095668" /><path
       id="rect4-3"
       style="fill:#800080;stroke-width:0.251511"
       d="m 7.0931288,15.462891 0.966122,9.03e-4 -1.437503,2.990598 -0.966934,0.0021 z"
       sodipodi:nodetypes="ccccc" /><path
       id="rect3-2"
       style="fill:#ff0000;stroke-width:0.267041"
       d="m 27.163081,14.743823 h 0.356157 0.348791 l 1.351209,4.323 h -3.4 z"
       sodipodi:nodetypes="cccccc" /><path
       id="rect11"
       style="fill:#cccccc;stroke-width:0.254381"
       d="M 31.294115 3.5710037 L 31.294445 9.4270464 L 32.082974 9.1817894 L 32.083239 3.5712585 L 31.294115 3.5710037 z "
       transform="rotate(17.277328)" /><rect
       style="fill:#ff00ff;stroke-width:0.264583"
       id="rect13"
       width="1.245687"
       height="1.245687"
       x="31.044857"
       y="5.2758436"
       transform="rotate(17.215598)" /><path
       sodipodi:type="star"
       style="fill:#ff00ff;stroke-width:0.264583"
       id="path13"
       inkscape:flatsided="false"
       sodipodi:sides="3"
       sodipodi:cx="22.988415"
       sodipodi:cy="13.309213"
       sodipodi:r1="1.4020929"
       sodipodi:r2="0.70104653"
       sodipodi:arg1="0.52359878"
       sodipodi:arg2="1.5707963"
       inkscape:rounded="0"
       inkscape:randomized="0"
       d="m 24.202663,14.010259 -1.214248,0 -1.214248,0 0.607124,-1.05157 0.607124,-1.051569 0.607124,1.051569 z"
       inkscape:transform-center-y="-0.91904049"
       transform="matrix(1.4241306,0,0,2.6219042,-5.222427,-17.648215)" /><path
       id="path13-0"
       style="fill:#000000;stroke-width:0.511264"
       inkscape:transform-center-y="-0.91904049"
       d="m 40.520241,14.001998 -0.248563,0.80202 h -0.785482 l -0.407211,1.298629 -0.864547,2.756938 h 1.729094 1.72961 l -0.794783,-2.534212 -0.542603,1.745113 h -0.825789 l 1.015958,-3.266468 h 0.825789 l -0.215489,0.69298 0.205154,0.06356 0.368454,-1.189592 z" /></g></svg>
