<?xml version="1.0" encoding="UTF-8"?>
<svg width="50mm" height="70mm" version="1.1" viewBox="0 0 50 70" xmlns="http://www.w3.org/2000/svg">
    <g id="outline">
        <path d="m25 0a1.1266 0.2344 0 0 0-0.52995 0.037507c-0.16015 0.013197-0.34825 0.05088-0.5623 0.12152-0.49622 0.14854-1.0617 0.41791-1.7287 0.8414-1.3841 0.87539-2.9058 2.1834-4.6727 4.146-4.1252 4.5724-8.0928 10.854-11.868 19.656-0.8494 1.9895-1.6033 4.0635-2.2615 6.2211-2.6049 8.5383-3.2907 17.037-3.3772 23.442 0.36868 9.1284 1.0027 14.991 1.7579 14.996 0.60148 0.48044 2.1731-0.88943 3.6833-3.1398a20.231 4.7666 0 0 0 19.559 3.6774v-5.0246a20.077 2.8451 0 0 1-19.438-2.2199c-0.00509 1e-3 -0.010371 2e-3 -0.015452 3e-3 -0.024729 0.0049-0.051805 0.01037-0.076535 0.01525-1.2173 1.4401-2.1427 2.6849-2.7864 3.7037 0.39166-2.5799 0.74315-6.7015 1.0201-11.876 0.68324-6.1354 1.7263-14.339 4.1172-22.151 0.61182-1.9992 1.2908-3.9122 2.0435-5.7495 3.6064-8.8352 6.5937-14.501 9.9843-19.593 1.4682-2.1985 2.4052-3.4333 3.4672-4.6883 0.54103-0.63589 0.75158-0.87569 1.1326-1.2815 0.25284-0.23814 0.44158-0.47626 0.55119-0.64612z"/>
        <path d="m25 0a1.1266 0.2344 0 0 1 0.52995 0.037505c0.16015 0.013195 0.34825 0.05088 0.5623 0.12152 0.49622 0.14854 1.0617 0.41791 1.7287 0.8414 1.3841 0.87539 2.9058 2.1834 4.6727 4.146 4.1252 4.5724 8.0928 10.854 11.868 19.656 0.84939 1.9895 1.6033 4.0635 2.2615 6.2211 2.6049 8.5383 3.2907 17.037 3.3772 23.442-0.36868 9.1284-1.0027 14.991-1.7579 14.996-0.60148 0.48044-2.1731-0.88943-3.6833-3.1398a20.231 4.7666 0 0 1-19.559 3.6774v-5.0246a20.077 2.8451 0 0 0 19.438-2.2199c0.0051 9.68e-4 0.01037 0.0019 0.01546 0.0029 0.02472 0.0049 0.0518 0.01036 0.07653 0.01524 1.2173 1.4401 2.1427 2.6849 2.7864 3.7037-0.39166-2.5799-0.74315-6.7015-1.0201-11.876-0.68324-6.1354-1.7263-14.339-4.1172-22.151-0.61182-1.9992-1.2908-3.9122-2.0435-5.7495-3.6064-8.8352-6.5937-14.501-9.9843-19.594-1.4682-2.1985-2.4052-3.4333-3.4672-4.6883-0.54103-0.63589-0.75158-0.87569-1.1326-1.2815-0.25284-0.23814-0.44158-0.47626-0.55121-0.64612z"/>
    </g>
    <g id="pendulum">
        <circle cx="25" cy="48.676" r="3.4"/>
        <path d="m25 16.756h1.0921l0.91737 24.387h-2.0095z"/>
        <path d="m25 16.756h-1.0921l-0.91737 24.387h2.0095z"/>
    </g>
</svg>
