<?xml version="1.0" encoding="UTF-8"?>
<svg width="50mm" height="70mm" version="1.1" viewBox="0 0 50 70" xmlns="http://www.w3.org/2000/svg" xmlns:xlink="http://www.w3.org/1999/xlink">
    <defs>
        <linearGradient id="linearGradient15" x1="28.3" x2="189" y1="24" y2="265" gradientTransform="scale(.265)" gradientUnits="userSpaceOnUse">
            <stop stop-color="#edff8e" offset="0"/>
            <stop stop-color="#fa8700" offset="1"/>
        </linearGradient>
    </defs>
    <path d="m24.6 0.267c-1.41 1.53-2.72 3.14-3.92 4.84-2.93 4.12-5.37 8.57-7.57 13.1-1.53 3.2-2.93 6.46-4.22 9.77-1.03 2.65-1.85 5.38-2.53 8.14-0.958 3.87-1.66 7.8-2.26 11.7-0.458 3.12-0.835 6.25-1 9.4-0.178 2.63-0.376 5.26-0.676 7.89-0.0273 0.322-0.161 0.65-0.0295 0.966 0.1 0.0951 0.224 0.221 0.349 0.274 0.209-0.0055 0.422-0.0356 0.576-0.193 0.533-0.541 0.953-1.18 1.43-1.77 0.285-0.371 0.569-0.743 0.865-1.11 1.12 0.39 2.26 0.723 3.43 0.938 2.84 0.545 5.74 0.768 8.62 0.947 1.08 0.0627 2.16 0.118 3.24 0.176 0.586 0.561 1.24 1.07 2.01 1.36 0.799 0.366 1.7 0.36 2.56 0.32 1.13-0.0623 2.26-0.469 3.11-1.23 0.183-0.143 0.342-0.334 0.532-0.454 3.89-0.201 7.8-0.38 11.6-1.09 1.2-0.219 2.37-0.539 3.52-0.942 0.162-0.0862 0.222 0.18 0.332 0.263 0.653 0.813 1.24 1.68 1.92 2.47 0.16 0.191 0.387 0.341 0.646 0.31 0.19 0.0456 0.277-0.184 0.416-0.276 0.124-0.354-0.033-0.715-0.0523-1.07-0.25-2.18-0.423-4.35-0.585-6.54-0.119-1.65-0.186-3.31-0.377-4.96-0.4-3.7-0.941-7.38-1.6-11-0.825-4.51-1.9-8.98-3.45-13.3-1.39-3.9-3.07-7.68-4.84-11.4-2.11-4.35-4.48-8.58-7.26-12.5-1.14-1.62-2.37-3.17-3.7-4.64-0.241-0.273-0.482-0.546-0.724-0.819-0.132 0.147-0.265 0.294-0.397 0.441z" fill="url(#linearGradient15)"/>
    <path d="m25 0a1.13 0.234 0 0 0-0.53 0.0377c-0.16 0.0132-0.348 0.0509-0.562 0.122-0.496 0.149-1.06 0.418-1.73 0.841-1.38 0.875-2.91 2.18-4.67 4.15-4.13 4.57-8.09 10.9-11.9 19.7-0.849 1.99-1.6 4.06-2.26 6.22-2.6 8.54-3.29 17-3.38 23.4 0.369 9.13 1 15 1.76 15 0.601 0.48 2.17-0.889 3.68-3.14a20.2 4.77 0 0 0 19.6 3.68v5.17e-4a20.2 4.77 0 0 0 0.00827 0 20.2 4.77 0 0 0 0.00775 0v-5.17e-4a20.2 4.77 0 0 0 19.6-3.68c1.51 2.25 3.08 3.62 3.68 3.14 0.76 0 1.39-5.87 1.76-15-0.09-6.4-0.78-14.9-3.38-23.4-0.66-2.16-1.41-4.23-2.26-6.22-3.81-8.8-7.77-15.1-11.9-19.7-1.76-1.97-3.29-3.28-4.67-4.15-0.67-0.423-1.23-0.692-1.73-0.841-0.214-0.0711-0.402-0.109-0.562-0.122a1.13 0.234 0 0 0-0.53-0.0377zm0 0.473c0.112 0.166 0.282 0.378 0.514 0.596 0.378 0.404 0.589 0.644 1.13 1.28 1.06 1.26 2 2.49 3.47 4.69 3.39 5.1 6.37 10.8 9.98 19.6 0.75 1.84 1.43 3.75 2.04 5.75 2.39 7.9 3.44 16.1 4.12 22.2 0.277 5.2 0.628 9.32 1.02 11.9-0.65-1.02-1.57-2.26-2.79-3.7-0.0247-0.0048-0.0518-0.0101-0.0765-0.015-0.0051-1e-3 -0.0104-0.00213-0.0155-0.0031a20.1 2.85 0 0 1-15.4 2.15 5.3 5.3 0 0 1-3.97 1.79 5.3 5.3 0 0 1-3.97-1.79 20.1 2.85 0 0 1-15.4-2.15c-0.00509 1e-3 -0.0104 0.0021-0.0155 0.0031-0.0247 0.0049-0.0518 0.0107-0.0765 0.0155-1.22 1.44-2.14 2.68-2.79 3.7 0.392-2.58 0.743-6.7 1.02-11.9 0.683-6.14 1.73-14.3 4.12-22.2 0.612-2 1.29-3.91 2.04-5.75 3.61-8.84 6.59-14.5 9.98-19.6 1.47-2.2 2.41-3.43 3.47-4.69 0.541-0.636 0.752-0.876 1.13-1.28 0.232-0.218 0.402-0.43 0.514-0.596z" stroke-width="0"/>
    <path d="m23.9 12.6-0.87 43.9a5.3 5.3 0 0 1 1.96-0.389 5.3 5.3 0 0 1 1.96 0.376l-0.869-43.9h-1.09z" stroke-width="0"/>
    <circle cx="25" cy="61.4" r="3.71"/>
</svg>
