<?xml version="1.0" standalone="no"?>
<!DOCTYPE svg PUBLIC "-//W3C//DTD SVG 20010904//EN"
 "http://www.w3.org/TR/2001/REC-SVG-20010904/DTD/svg10.dtd">
<svg version="1.0" xmlns="http://www.w3.org/2000/svg"
 width="700.000000pt" height="700.000000pt" viewBox="0 0 700.000000 700.000000"
 preserveAspectRatio="xMidYMid meet">
<metadata>
Created by potrace 1.14, written by Peter Selinger 2001-2017
</metadata>
<g transform="translate(0.000000,700.000000) scale(0.100000,-0.100000)"
fill="#000000" stroke="none">
<path d="M3447 6549 c-201 -31 -526 -316 -847 -744 -405 -539 -822 -1373
-1010 -2020 -151 -519 -237 -1055 -271 -1695 -24 -453 45 -1407 114 -1572 19
-44 52 -57 100 -37 39 16 159 137 212 213 l38 55 41 -28 c276 -190 1010 -305
1821 -288 714 16 1298 122 1519 277 l55 39 37 -52 c21 -29 63 -79 93 -111 104
-109 167 -140 204 -98 47 52 89 373 123 947 45 757 -46 1589 -251 2304 -104
363 -227 670 -436 1091 -298 599 -595 1037 -932 1378 -263 266 -442 366 -610
341z m254 -271 c283 -355 586 -866 848 -1433 342 -738 496 -1194 630 -1864 75
-376 172 -1063 186 -1331 10 -194 44 -618 60 -750 8 -69 15 -129 15 -134 0 -4
-25 27 -56 70 -60 85 -161 211 -175 220 -5 2 -46 -8 -91 -25 -193 -68 -545
-116 -1033 -143 l-230 -12 -55 -45 c-107 -87 -243 -125 -370 -103 -84 14 -176
58 -234 113 -41 37 -47 39 -107 39 -100 0 -374 19 -594 40 -300 30 -520 73
-663 131 -38 16 -28 26 -173 -166 -51 -66 -94 -122 -97 -125 -2 -3 -2 11 1 30
21 119 46 407 72 805 16 264 68 692 125 1034 113 683 245 1163 461 1685 396
950 800 1658 1211 2118 l69 77 61 -67 c34 -37 96 -111 139 -164z"/>
<path d="M3400 5358 c0 -51 -16 -858 -35 -1793 -19 -935 -35 -1757 -35 -1827
l0 -126 47 14 c59 18 187 18 246 0 l47 -14 0 81 c0 45 -16 849 -35 1787 -19
938 -35 1765 -35 1838 l0 132 -100 0 -100 0 0 -92z"/>
<path d="M3425 1501 c-144 -38 -249 -168 -249 -310 0 -38 7 -88 17 -118 23
-66 94 -146 161 -181 45 -24 62 -27 146 -27 84 0 101 3 146 27 28 15 72 50 97
78 145 162 90 416 -111 510 -49 23 -157 34 -207 21z"/>
</g>
</svg>
