<?xml version="1.0" encoding="UTF-8" standalone="no"?>
<svg
   xmlns="http://www.w3.org/2000/svg"
   xmlns:xlink="http://www.w3.org/1999/xlink"
   id="svg8"
   version="1.1"
   viewBox="0 0 3 3"
   height="3mm"
   width="3mm">
  <defs
     id="defs2">
    <linearGradient
       id="linearGradient5105">
      <stop
         id="stop5101"
         offset="0"
         style="stop-color:#848484;stop-opacity:0.50196081" />
      <stop
         id="stop5103"
         offset="1"
         style="stop-color:#e1e1e1;stop-opacity:0.50196081" />
    </linearGradient>
    <linearGradient
       id="linearGradient5080">
      <stop
         id="stop5076"
         offset="0"
         style="stop-color:#c8c8c8;stop-opacity:0.69803923" />
      <stop
         id="stop5078"
         offset="1"
         style="stop-color:#000000;stop-opacity:0.77006805" />
    </linearGradient>
    <linearGradient
       gradientTransform="matrix(3.7795276,0,0,3.7795276,0,-1111.1811)"
       gradientUnits="userSpaceOnUse"
       y2="296.59329"
       x2="2.529355"
       y1="294.47394"
       x1="0.40925646"
       id="linearGradient5082"
       xlink:href="#linearGradient5080" />
    <linearGradient
       y2="296.33606"
       x2="2.3483622"
       y1="294.66101"
       x1="0.62532836"
       gradientUnits="userSpaceOnUse"
       id="linearGradient5109"
       xlink:href="#linearGradient5105" />
  </defs>
  <g
     transform="translate(0,-294)"
     id="layer1">
    <path
       id="path10"
       transform="matrix(0.26458333,0,0,0.26458333,0,294)"
       d="M 5.6699219 0 A 5.6692913 5.6692913 0 0 0 0 5.6699219 A 5.6692913 5.6692913 0 0 0 5.6699219 11.337891 A 5.6692913 5.6692913 0 0 0 11.337891 5.6699219 A 5.6692913 5.6692913 0 0 0 5.6699219 0 z M 5.6699219 1.1347656 A 4.5354333 4.5354333 0 0 1 10.205078 5.6699219 A 4.5354333 4.5354333 0 0 1 5.6699219 10.205078 A 4.5354333 4.5354333 0 0 1 1.1347656 5.6699219 A 4.5354333 4.5354333 0 0 1 5.6699219 1.1347656 z "
       style="fill:url(#linearGradient5082);fill-opacity:1;stroke-width:0.08376786" />
    <circle
       r="1.2"
       cy="295.5"
       cx="1.5"
       id="path10-3"
       style="fill:url(#linearGradient5109);stroke:none;stroke-width:0.01;stroke-miterlimit:4;stroke-dasharray:none;stroke-opacity:1;fill-opacity:1" />
  </g>
</svg>
